<svg xmlns="http://www.w3.org/2000/svg" viewBox="0 0 148.1 32.75"><defs><style>.cls-1{fill:#1f1f1f;}.cls-2{fill:none;stroke:#f39415;}.cls-3,.cls-5{fill:#f39415;}.cls-4,.cls-5{isolation:isolate;}.cls-5{font-size:13px;font-family:Poppins-SemiBold, Poppins;font-weight:600;}</style></defs><g id="Calque_2" data-name="Calque 2"><g id="Calque_1-2" data-name="Calque 1"><g id="Groupe_170" data-name="Groupe 170"><g id="Rectangle_188" data-name="Rectangle 188"><rect class="cls-1" width="148.1" height="32.75" rx="5"/><rect class="cls-2" x="0.5" y="0.5" width="147.1" height="31.75" rx="4.5"/></g><g id="upload-svgrepo-com"><g id="Upload"><path id="Tracé_669" data-name="Tracé 669" class="cls-3" d="M23.53,17.49a.59.59,0,0,0-.5.64v4.45H9.2V18.13a.58.58,0,0,0-.49-.64.58.58,0,0,0-.49.64v5.09a.56.56,0,0,0,.49.63H23.53a.56.56,0,0,0,.49-.63V18.13A.58.58,0,0,0,23.53,17.49Z"/><path id="Tracé_670" data-name="Tracé 670" class="cls-3" d="M12.13,12.59l3.35-3.31V21.74a.66.66,0,0,0,.67.62.65.65,0,0,0,.62-.62V9.28l3.35,3.31a.67.67,0,0,0,.91,0,.64.64,0,0,0,0-.9h0L16.58,7.3a.65.65,0,0,0-.91,0l-4.45,4.39a.63.63,0,0,0,0,.89h0A.67.67,0,0,0,12.13,12.59Z"/></g></g><g id="AJOUTER_IMAGE" data-name="AJOUTER IMAGE" class="cls-4"><text class="cls-5" transform="translate(38.02 19.98)">AJOUTER IMAGE</text></g></g></g></g></svg>