<svg xmlns="http://www.w3.org/2000/svg" xmlns:xlink="http://www.w3.org/1999/xlink" viewBox="0 0 634.03 611.26"><defs><style>.cls-1{isolation:isolate;opacity:0.3;}.cls-2{fill:url(#Dégradé_sans_nom);}.cls-3{fill-rule:evenodd;fill:url(#Dégradé_sans_nom_2);}.cls-4{fill:url(#Dégradé_sans_nom_4);}.cls-5{fill:url(#Dégradé_sans_nom_4-2);}.cls-6{fill:#504f4f;}</style><linearGradient id="Dégradé_sans_nom" x1="21.15" y1="726.34" x2="20.38" y2="725.44" gradientTransform="matrix(594.16, 0, 0, -600.63, -12047.15, 436358.15)" gradientUnits="userSpaceOnUse"><stop offset="0" stop-color="#f39415"/><stop offset="1" stop-color="#3c2713"/></linearGradient><linearGradient id="Dégradé_sans_nom_2" x1="20.81" y1="725.99" x2="20.81" y2="724.99" gradientTransform="matrix(320.31, 0, 0, -164.45, -6223.58, 119389)" gradientUnits="userSpaceOnUse"><stop offset="0" stop-color="#f39415"/><stop offset="1" stop-color="#facb89"/></linearGradient><linearGradient id="Dégradé_sans_nom_4" x1="16.83" y1="727.05" x2="16.91" y2="727" gradientTransform="matrix(107.21, 0, 0, -84.58, -2148.21, 61359.57)" gradientUnits="userSpaceOnUse"><stop offset="0" stop-color="#fff"/><stop offset="0.16" stop-color="#d8d8d8"/><stop offset="0.35" stop-color="#b3b2b2"/><stop offset="0.5" stop-color="#9b9a9a"/><stop offset="0.6" stop-color="#909091"/><stop offset="1" stop-color="#cac9c9"/></linearGradient><linearGradient id="Dégradé_sans_nom_4-2" x1="11.52" y1="727.81" x2="11.72" y2="727.7" gradientTransform="matrix(42.03, 0, 0, -33.69, -832.87, 24373.01)" xlink:href="#Dégradé_sans_nom_4"/></defs><g id="Calque_2" data-name="Calque 2"><g id="Calque_1-2" data-name="Calque 1"><g id="NOT"><g id="Calque_1-3" data-name="Calque 1"><path id="Tracé_44" data-name="Tracé 44" class="cls-1" d="M620.44,607c-199.68-8.35-388.9-2.94-578.63,4.26C25.94,408.29,36,217,49.92,19.14l220.79-1.08c145.13,6.16,211.44,83.32,258.07,164.33,79.54-66.41,95,29.75,95.41,90.87C625,388.42,620.44,607,620.44,607Z"/><path id="Tracé_59" data-name="Tracé 59" class="cls-2" d="M634,603.25c-199.68-8.38-393.23-7.2-583,0-15.87-203-14-402.85,0-600.63H278c145.1,6,211.41,83.35,258,164.35,79.54-66.4,95,29.72,95.41,90.85q1.28,172.7,2.54,345.4Z"/><path id="Tracé_60" data-name="Tracé 60" class="cls-3" d="M283,2.85C424.61,10.44,490.07,86.91,536.08,167c31.32-26.06,52.79-27.07,67.16-14.92a398.65,398.65,0,0,0-111.77-94.5C423.05,17.9,349,.14,282.93,2.78Z"/><path id="Tracé_62" data-name="Tracé 62" class="cls-4" d="M16,22.23l99.94,76.28a4.82,4.82,0,0,0,5.8-7.62h0L21.84,14.61Z"/><path id="Tracé_63" data-name="Tracé 63" class="cls-5" d="M45.2,32.3,9,4.67,3.16,12.3,37.41,38.36A34.71,34.71,0,0,1,45.2,32.3Z"/><path id="Tracé_64" data-name="Tracé 64" class="cls-6" d="M33.76,9.43A18,18,0,1,1,23,.73,18,18,0,0,1,33.76,9.43Z"/></g></g></g></g></svg>