<svg xmlns="http://www.w3.org/2000/svg" xmlns:xlink="http://www.w3.org/1999/xlink" viewBox="0 0 551.82 617.55"><defs><style>.cls-1{fill:url(#Dégradé_sans_nom);}.cls-2{fill:url(#Dégradé_sans_nom_2);}.cls-3{fill:#402312;}.cls-4{fill:#454545;}.cls-5{fill:#fdd08d;}.cls-6{fill:#776869;}</style><linearGradient id="Dégradé_sans_nom" x1="-20.07" y1="729.65" x2="-20.58" y2="729.12" gradientTransform="matrix(551.82, 0, 0, -617.54, 11342.66, 450864.95)" gradientUnits="userSpaceOnUse"><stop offset="0" stop-color="#f39415"/><stop offset="1" stop-color="#3c2713"/></linearGradient><linearGradient id="Dégradé_sans_nom_2" x1="-19.73" y1="729.13" x2="-20.38" y2="728.7" gradientTransform="matrix(528.26, 0, 0, -144.26, 10857.52, 105711.96)" gradientUnits="userSpaceOnUse"><stop offset="0" stop-color="#fcc77b"/><stop offset="0.28" stop-color="#f59a2c"/><stop offset="1" stop-color="#f18618"/></linearGradient></defs><g id="Calque_2" data-name="Calque 2"><g id="Calque_1-2" data-name="Calque 1"><path id="Tracé_657" data-name="Tracé 657" class="cls-1" d="M0,0V617.54l506.48-90.22c3.52,8.76,8.92,16.64,17.23,21.77,0,0,19.48,8.44,28.11-29.85V0Z"/><path id="Tracé_658" data-name="Tracé 658" class="cls-2" d="M505.88,473.28s-9.2,54.48,22.38,75.75L0,617.55Z"/><path id="Tracé_663" data-name="Tracé 663" class="cls-3" d="M241.91,28.93a40.07,40.07,0,0,1,56.62-2.1q1.08,1,2.1,2.1c16.21,17.07,16.21,44.74,0,61.81A40.06,40.06,0,0,1,244,92.84c-.73-.67-1.43-1.37-2.1-2.09C225.69,73.68,225.7,46,241.91,28.93Z"/><path id="Tracé_664" data-name="Tracé 664" class="cls-4" d="M230.91,48.73c5.29-23.49,27.68-38,50-32.43S317,45.44,311.7,68.93s-27.68,38-50,32.43S225.61,72.22,230.91,48.73Z"/><path id="Tracé_659" data-name="Tracé 659" class="cls-5" d="M271.38,93c-18.84,0-34.29-15.7-35-35.51v1.37c0,20.36,15.68,36.87,35,36.87s35-16.51,35-36.87V57.46C305.78,77.33,290.26,93,271.38,93Z"/><path id="Tracé_660" data-name="Tracé 660" class="cls-5" d="M271.35,23.32c18.82,0,34.27,15.7,34.94,35.51V57.47c0-20.37-15.68-36.87-35-36.87s-35,16.5-35,36.86v1.37c.69-19.87,16.22-35.58,35.1-35.51Z"/><path id="Tracé_661" data-name="Tracé 661" class="cls-6" d="M286.57,38.1c9.3,6.17,7.62,18.76,4.5,28.19-1.68,5,5.84,7.14,7.61,2.18,4.46-13.25,4.3-29.21-8.07-37.45C286.29,28.07,282.38,35.23,286.57,38.1Z"/><path id="Tracé_662" data-name="Tracé 662" class="cls-6" d="M287.36,82.21c5,0,5-8.23,0-8.23S282.33,82.21,287.36,82.21Z"/></g></g></svg>