<svg xmlns="http://www.w3.org/2000/svg" viewBox="0 0 60.56 51.64"><defs><style>.cls-1,.cls-2{fill:#f6f6f6;}.cls-2{stroke:#f6f6f6;}</style></defs><g id="Calque_2" data-name="Calque 2"><g id="Calque_1-2" data-name="Calque 1"><path id="Tracé_10" data-name="Tracé 10" class="cls-1" d="M13.33,21.4H8V16.07h5.33ZM24,16.07H18.66v5.34H24Zm10.66,0H29.33v5.34h5.33Zm-21.33,8H8v5.34h5.33Zm10.67,0H18.66v5.34H24Zm10.66,0H29.33v5.34h5.33Zm-21.33,8H8v5.34h5.33Zm10.66,0H18.66v5.34H24Zm-13.33-24a2.66,2.66,0,0,0,2.67-2.66h0V2.74A2.67,2.67,0,1,0,8,2.59V5.41a2.66,2.66,0,0,0,2.66,2.66Zm32-2.66V42.73H0V5.41H6.66a4,4,0,0,0,8,0H28a4,4,0,0,0,8,0Zm-2.67,8H2.67V40.07H40ZM32,8.07a2.67,2.67,0,0,0,2.67-2.66h0V2.74a2.67,2.67,0,1,0-5.33,0V5.41A2.66,2.66,0,0,0,32,8.07Z"/><g id="icons8-paramètres"><path id="icons8-paramètres-2" class="cls-2" d="M50.5,34.07a.38.38,0,0,0-.37.31l-.36,2.21a6.73,6.73,0,0,0-1.24.51l-1.82-1.3a.38.38,0,0,0-.48,0l-1.44,1.44a.37.37,0,0,0,0,.48L46,39.59a6.22,6.22,0,0,0-.52,1.25l-2.2.36a.38.38,0,0,0-.31.37v2a.37.37,0,0,0,.3.36l2.2.39A6.22,6.22,0,0,0,46,45.61l-1.3,1.82a.37.37,0,0,0,0,.47l1.45,1.45a.38.38,0,0,0,.47,0l1.84-1.29a5.79,5.79,0,0,0,1.24.51l.37,2.22a.37.37,0,0,0,.36.31h2a.37.37,0,0,0,.37-.31l.39-2.22a6.14,6.14,0,0,0,1.24-.52l1.85,1.3a.36.36,0,0,0,.47,0L58.3,47.9a.36.36,0,0,0,0-.47L57,45.59a6.14,6.14,0,0,0,.5-1.22l2.24-.4a.37.37,0,0,0,.3-.36v-2a.37.37,0,0,0-.31-.36l-2.23-.37A5.63,5.63,0,0,0,57,39.62l1.3-1.86a.35.35,0,0,0,0-.47l-1.44-1.45a.38.38,0,0,0-.48,0l-1.82,1.32a6.39,6.39,0,0,0-1.24-.52l-.39-2.22a.38.38,0,0,0-.37-.31Zm.31.75h1.42l.37,2.1a.35.35,0,0,0,.27.3,5.51,5.51,0,0,1,1.52.64.38.38,0,0,0,.41,0l1.73-1.25,1,1L56.3,39.35a.38.38,0,0,0,0,.4,5.26,5.26,0,0,1,.63,1.51.35.35,0,0,0,.3.27l2.12.35v1.41l-2.13.38a.38.38,0,0,0-.3.28,5.26,5.26,0,0,1-.63,1.51.38.38,0,0,0,0,.41l1.25,1.74-1,1-1.75-1.24a.36.36,0,0,0-.4,0,5.2,5.2,0,0,1-1.52.63.38.38,0,0,0-.27.3l-.38,2.11H50.81l-.35-2.1a.35.35,0,0,0-.28-.3,5.62,5.62,0,0,1-1.52-.63.36.36,0,0,0-.4,0L46.51,48.6l-1-1,1.24-1.73a.36.36,0,0,0,0-.4,5.71,5.71,0,0,1-.64-1.53.38.38,0,0,0-.29-.28l-2.09-.37V41.88l2.09-.34a.41.41,0,0,0,.3-.28,5.68,5.68,0,0,1,.63-1.53.36.36,0,0,0,0-.4l-1.22-1.74,1-1,1.73,1.23a.38.38,0,0,0,.41,0,5.32,5.32,0,0,1,1.52-.63.36.36,0,0,0,.28-.3Zm.72,4.82a3,3,0,1,0,3,3h0a3,3,0,0,0-3-3Zm0,.74a2.23,2.23,0,1,1-2.22,2.23h0a2.22,2.22,0,0,1,2.21-2.23Z"/></g></g></g></svg>