<?xml version="1.0" encoding="utf-8"?>
<!-- Generator: Adobe Illustrator 26.0.2, SVG Export Plug-In . SVG Version: 6.00 Build 0)  -->
<svg version="1.1" id="Calque_1" xmlns="http://www.w3.org/2000/svg" xmlns:xlink="http://www.w3.org/1999/xlink" x="0px" y="0px"
	 viewBox="0 0 60.6 51.6" style="enable-background:new 0 0 60.6 51.6;" xml:space="preserve">
<style type="text/css">
	.st0{fill:#FA9403;stroke:#FA9403;stroke-miterlimit:10;}
	.st1{fill:#FA9403;stroke:#FA9403;}
</style>
<g id="Calque_2_00000130614621166170525310000007121828305928895904_">
	<g id="Calque_1-2">
		<path id="Tracé_10" class="st0" d="M13.3,21.4H8v-5.3h5.3V21.4z M24,16.1h-5.3v5.3H24V16.1z M34.7,16.1h-5.3v5.3h5.3V16.1z
			 M13.3,24.1H8v5.3h5.3V24.1z M24,24.1h-5.3v5.3H24V24.1z M34.7,24.1h-5.3v5.3h5.3V24.1z M13.3,32.1H8v5.3h5.3V32.1z M24,32.1h-5.3
			v5.3H24L24,32.1z M10.7,8.1c1.5,0,2.7-1.2,2.7-2.6c0,0,0,0,0,0l0,0V2.7c0.1-1.5-1-2.8-2.4-2.9S8.1,0.8,8,2.3c0,0.1,0,0.2,0,0.3
			v2.8C8,6.9,9.2,8.1,10.7,8.1z M42.7,5.4v37.3H0V5.4h6.7c0,2.2,1.8,4,4,4s4-1.8,4-4H28c0,2.2,1.8,4,4,4s4-1.8,4-4H42.7z M40,13.4
			H2.7v26.7H40L40,13.4z M32,8.1c1.5,0,2.7-1.2,2.7-2.7l0,0V2.7c0.1-1.5-1-2.7-2.5-2.8c-1.5-0.1-2.7,1-2.8,2.5c0,0.1,0,0.2,0,0.3
			v2.7C29.3,6.9,30.5,8.1,32,8.1L32,8.1z"/>
		<g id="icons8-paramètres">
			<path id="icons8-paramètres-2" class="st1" d="M50.5,34.1c-0.2,0-0.3,0.1-0.4,0.3l-0.4,2.2c-0.4,0.1-0.8,0.3-1.2,0.5l-1.8-1.3
				c-0.1-0.1-0.3-0.1-0.5,0l-1.4,1.4c-0.1,0.1-0.1,0.3,0,0.5l1.2,1.9c-0.2,0.4-0.4,0.8-0.5,1.2l-2.2,0.4c-0.2,0-0.3,0.2-0.3,0.4v2
				c0,0.2,0.1,0.3,0.3,0.4l2.2,0.4c0.1,0.4,0.3,0.9,0.5,1.3l-1.3,1.8c-0.1,0.1-0.1,0.3,0,0.5l1.5,1.5c0.1,0.1,0.3,0.1,0.5,0l1.8-1.3
				c0.4,0.2,0.8,0.4,1.2,0.5l0.4,2.2c0,0.2,0.2,0.3,0.4,0.3h2c0.2,0,0.3-0.1,0.4-0.3l0.4-2.2c0.4-0.1,0.8-0.3,1.2-0.5l1.8,1.3
				c0.1,0.1,0.3,0.1,0.5,0l1.5-1.4c0.1-0.1,0.1-0.3,0-0.5L57,45.6c0.2-0.4,0.4-0.8,0.5-1.2l2.2-0.4c0.2,0,0.3-0.2,0.3-0.4v-2
				c0-0.2-0.1-0.3-0.3-0.4l-2.2-0.4c-0.1-0.4-0.3-0.9-0.5-1.3l1.3-1.9c0.1-0.1,0.1-0.3,0-0.5l-1.4-1.5c-0.1-0.1-0.3-0.1-0.5,0
				l-1.8,1.3c-0.4-0.2-0.8-0.4-1.2-0.5l-0.4-2.2c0-0.2-0.2-0.3-0.4-0.3L50.5,34.1z M50.8,34.8h1.4l0.4,2.1c0,0.1,0.1,0.3,0.3,0.3
				c0.5,0.1,1,0.4,1.5,0.6c0.1,0.1,0.3,0.1,0.4,0l1.7-1.2l1,1l-1.2,1.7c-0.1,0.1-0.1,0.3,0,0.4c0.3,0.5,0.5,1,0.6,1.5
				c0,0.1,0.2,0.3,0.3,0.3l2.1,0.3v1.4l-2.1,0.4c-0.1,0-0.3,0.1-0.3,0.3c-0.1,0.5-0.3,1-0.6,1.5c-0.1,0.1-0.1,0.3,0,0.4l1.2,1.7
				l-1,1l-1.8-1.2c-0.1-0.1-0.3-0.1-0.4,0c-0.5,0.3-1,0.5-1.5,0.6c-0.1,0-0.2,0.2-0.3,0.3l-0.4,2.1h-1.4l-0.3-2.1
				c0-0.1-0.1-0.3-0.3-0.3c-0.5-0.1-1-0.3-1.5-0.6c-0.1-0.1-0.3-0.1-0.4,0l-1.8,1.2l-1-1l1.2-1.7c0.1-0.1,0.1-0.3,0-0.4
				c-0.3-0.5-0.5-1-0.6-1.5c0-0.1-0.1-0.2-0.3-0.3l-2.1-0.4v-1.4l2.1-0.3c0.1,0,0.3-0.1,0.3-0.3c0.1-0.5,0.3-1.1,0.6-1.5
				c0.1-0.1,0.1-0.3,0-0.4l-1.2-1.7l1-1l1.7,1.2c0.1,0.1,0.3,0.1,0.4,0c0.5-0.3,1-0.5,1.5-0.6c0.1,0,0.3-0.2,0.3-0.3L50.8,34.8z
				 M51.5,39.6c-1.7,0-3,1.3-3,3s1.3,3,3,3s3-1.3,3-3l0,0C54.5,41,53.2,39.6,51.5,39.6z M51.5,40.4c1.2,0,2.2,1,2.2,2.2
				c0,1.2-1,2.2-2.2,2.2c-1.2,0-2.2-1-2.2-2.2c0,0,0,0,0,0l0,0C49.3,41.4,50.3,40.4,51.5,40.4C51.5,40.4,51.5,40.4,51.5,40.4
				L51.5,40.4z"/>
		</g>
	</g>
</g>
</svg>
