<svg xmlns="http://www.w3.org/2000/svg" viewBox="0 0 71 76.86"><defs><style>.cls-1{fill:none;stroke:#fff;stroke-linecap:round;stroke-linejoin:round;stroke-width:3px;}</style></defs><g id="Calque_2" data-name="Calque 2"><g id="Calque_1-2" data-name="Calque 1"><g id="_17._booking" data-name="17. booking"><path id="Tracé_40" data-name="Tracé 40" class="cls-1" d="M26.83,66.9H4.17A2.66,2.66,0,0,1,1.5,64.24V26.9a2.66,2.66,0,0,1,2.67-2.66h6.66"/><path id="Tracé_41" data-name="Tracé 41" class="cls-1" d="M37.69,20.42h6.67A2.68,2.68,0,0,1,47,23.09v24"/><path id="Tracé_42" data-name="Tracé 42" class="cls-1" d="M29.5,10.83c0,10.67-9.33,17.34-9.33,17.34s-9.34-6.67-9.34-17.34a9.34,9.34,0,0,1,18.67,0Z"/><circle id="Ellipse_26" data-name="Ellipse 26" class="cls-1" cx="24.53" cy="10.83" r="2.67"/><line id="Ligne_21" data-name="Ligne 21" class="cls-1" x1="53.5" y1="53.17" x2="69.5" y2="53.17"/><line id="Ligne_22" data-name="Ligne 22" class="cls-1" x1="57.5" y1="63.17" x2="69.5" y2="63.17"/><line id="Ligne_23" data-name="Ligne 23" class="cls-1" x1="56.17" y1="75.36" x2="69.5" y2="75.36"/><rect id="Rectangle_20" data-name="Rectangle 20" class="cls-1" x="6.83" y="42.6" width="6.67" height="8"/><line id="Ligne_24" data-name="Ligne 24" class="cls-1" x1="6.83" y1="56.5" x2="13.5" y2="56.5"/><line id="Ligne_25" data-name="Ligne 25" class="cls-1" x1="6.83" y1="61.5" x2="13.5" y2="61.5"/></g></g></g></svg>