<?xml version="1.0" encoding="utf-8"?>
<!-- Generator: Adobe Illustrator 26.0.2, SVG Export Plug-In . SVG Version: 6.00 Build 0)  -->
<svg version="1.1" id="Calque_1" xmlns="http://www.w3.org/2000/svg" xmlns:xlink="http://www.w3.org/1999/xlink" x="0px" y="0px"
	 viewBox="0 0 71 76.9" style="enable-background:new 0 0 71 76.9;" xml:space="preserve">
<style type="text/css">
	.st0{fill:none;stroke:#FA9403;stroke-width:3;stroke-linecap:round;stroke-linejoin:round;}
</style>
<g id="Calque_2_00000008852819546932039780000012860320208856738691_">
	<g id="Calque_1-2">
		<g id="_17._booking">
			<path id="Tracé_40" class="st0" d="M26.8,66.9H4.2c-1.5,0-2.7-1.2-2.7-2.6c0,0,0,0,0,0V26.9c0-1.5,1.2-2.7,2.7-2.7c0,0,0,0,0,0
				h6.7"/>
			<path id="Tracé_41" class="st0" d="M37.7,20.4h6.7c1.5,0,2.6,1.2,2.6,2.7v24"/>
			<path id="Tracé_42" class="st0" d="M29.5,10.8c0,10.7-9.3,17.3-9.3,17.3s-9.3-6.7-9.3-17.3c0.2-5.2,4.5-9.2,9.6-9
				C25.4,2,29.3,5.9,29.5,10.8z"/>
			<circle id="Ellipse_26" class="st0" cx="24.5" cy="10.8" r="2.7"/>
			<line id="Ligne_21" class="st0" x1="53.5" y1="53.2" x2="69.5" y2="53.2"/>
			<line id="Ligne_22" class="st0" x1="57.5" y1="63.2" x2="69.5" y2="63.2"/>
			<line id="Ligne_23" class="st0" x1="56.2" y1="75.4" x2="69.5" y2="75.4"/>
			<rect id="Rectangle_20" x="6.8" y="42.6" class="st0" width="6.7" height="8"/>
			<line id="Ligne_24" class="st0" x1="6.8" y1="56.5" x2="13.5" y2="56.5"/>
			<line id="Ligne_25" class="st0" x1="6.8" y1="61.5" x2="13.5" y2="61.5"/>
		</g>
	</g>
</g>
</svg>
