<?xml version="1.0" encoding="utf-8"?>
<!-- Generator: Adobe Illustrator 26.0.1, SVG Export Plug-In . SVG Version: 6.00 Build 0)  -->
<svg version="1.1" id="Calque_1" xmlns="http://www.w3.org/2000/svg" xmlns:xlink="http://www.w3.org/1999/xlink" x="0px" y="0px"
	 viewBox="0 0 329 92.6" style="enable-background:new 0 0 329 92.6;" xml:space="preserve">
<style type="text/css">
	.st0{enable-background:new    ;}
	.st1{fill:#DF942E;}
	.st2{fill:none;stroke:#DF942E;stroke-width:3;stroke-miterlimit:10;}
	.st3{fill:#FFFFFF;}
</style>
<g id="Calque_2_00000020384926451611684640000010836737636481577660_">
	<g id="Calque_1-2">
		<g class="st0">
			<path class="st1" d="M142.2,34.2v9.5h-7.5v-9.7l-10.1-16.9h7.9l6.3,10.6l6.3-10.6h7.3L142.2,34.2z"/>
			<path class="st1" d="M152.9,30.5c0-8,6.3-13.8,14.8-13.8c8.5,0,14.8,5.9,14.8,13.8c0,8-6.3,13.8-14.8,13.8
				C159.2,44.3,152.9,38.5,152.9,30.5z M174.9,30.5c0-4.6-3.2-7.6-7.2-7.6c-4,0-7.2,3-7.2,7.6c0,4.6,3.2,7.6,7.2,7.6
				C171.7,38.1,174.9,35.1,174.9,30.5z"/>
			<path class="st1" d="M186.2,31.9V17.2h7.5v14.5c0,4.6,1.9,6.4,5.1,6.4c3.1,0,5-1.8,5-6.4V17.2h7.4v14.7c0,7.9-4.6,12.4-12.5,12.4
				S186.2,39.9,186.2,31.9z"/>
			<path class="st1" d="M214.9,30.5c0-8.1,6.2-13.8,14.6-13.8c4.9,0,8.9,1.8,11.4,5l-4.8,4.3c-1.7-2-3.7-3.1-6.3-3.1
				c-4.4,0-7.4,3-7.4,7.6s3,7.6,7.4,7.6c2.5,0,4.6-1.1,6.3-3.1l4.8,4.3c-2.6,3.2-6.5,5-11.4,5C221.1,44.3,214.9,38.6,214.9,30.5z"/>
			<path class="st1" d="M243,30.5c0-8,6.3-13.8,14.8-13.8s14.8,5.9,14.8,13.8c0,8-6.3,13.8-14.8,13.8S243,38.5,243,30.5z
				 M264.9,30.5c0-4.6-3.2-7.6-7.2-7.6s-7.2,3-7.2,7.6c0,4.6,3.2,7.6,7.2,7.6S264.9,35.1,264.9,30.5z"/>
			<path class="st1" d="M276.5,17.2h12.6c8.8,0,14.9,5.1,14.9,13.3s-6,13.3-14.9,13.3h-12.6V17.2z M288.8,37.8
				c4.5,0,7.6-2.7,7.6-7.3c0-4.6-3-7.3-7.6-7.3H284v14.6H288.8z"/>
			<path class="st1" d="M329.2,38v5.8h-21.4V17.2h20.9V23h-13.4v4.5h11.8v5.6h-11.8V38H329.2z"/>
		</g>
		<g class="st0">
			<path class="st1" d="M132.5,64.5l-2-2.9h-0.1h-2.1v2.9h-2.4V54h4.5c2.8,0,4.6,1.5,4.6,3.8c0,1.6-0.8,2.7-2.2,3.3l2.4,3.4H132.5z
				 M130.2,55.9h-2v3.7h2c1.5,0,2.2-0.7,2.2-1.8C132.4,56.6,131.7,55.9,130.2,55.9z"/>
			<path class="st1" d="M144.9,62.5v2h-8.1V54h7.9v2h-5.5v2.3h4.9v1.9h-4.9v2.4H144.9z"/>
			<path class="st1" d="M146,63.4l0.8-1.8c0.9,0.6,2.2,1.1,3.5,1.1c1.4,0,2-0.5,2-1.1c0-2-6.1-0.6-6.1-4.5c0-1.8,1.4-3.3,4.4-3.3
				c1.3,0,2.7,0.3,3.6,0.9l-0.8,1.8c-1-0.6-2-0.8-2.9-0.8c-1.4,0-2,0.5-2,1.2c0,1.9,6.1,0.6,6.1,4.5c0,1.8-1.5,3.3-4.5,3.3
				C148.6,64.6,147,64.1,146,63.4z"/>
			<path class="st1" d="M158.6,55.9h-3.4v-2h9.1v2H161v8.5h-2.4V55.9z"/>
			<path class="st1" d="M172.6,62.2h-4.9l-0.9,2.2h-2.5L169,54h2.4l4.7,10.5h-2.5L172.6,62.2z M171.9,60.4l-1.7-4l-1.7,4H171.9z"/>
			<path class="st1" d="M177.1,59.8V54h2.4v5.8c0,2,0.9,2.8,2.3,2.8c1.5,0,2.3-0.8,2.3-2.8V54h2.4v5.9c0,3.1-1.8,4.8-4.8,4.8
				C178.9,64.6,177.1,62.9,177.1,59.8z"/>
			<path class="st1" d="M195.7,64.5l-2-2.9h-0.1h-2.1v2.9H189V54h4.5c2.8,0,4.6,1.5,4.6,3.8c0,1.6-0.8,2.7-2.2,3.3l2.4,3.4H195.7z
				 M193.4,55.9h-2v3.7h2c1.5,0,2.2-0.7,2.2-1.8C195.7,56.6,194.9,55.9,193.4,55.9z"/>
			<path class="st1" d="M207,62.2h-4.9l-0.9,2.2h-2.5l4.7-10.5h2.4l4.7,10.5h-2.5L207,62.2z M206.2,60.4l-1.7-4l-1.7,4H206.2z"/>
			<path class="st1" d="M221.2,54v10.5h-2l-5.2-6.4v6.4h-2.4V54h2l5.2,6.4V54H221.2z"/>
			<path class="st1" d="M225.8,55.9h-3.4v-2h9.1v2h-3.4v8.5h-2.4V55.9z"/>
		</g>
		<line class="st2" x1="105.8" y1="0" x2="105.8" y2="92.6"/>
		<path class="st3" d="M46.5,14.9c-1,0.4-1.7,1.2-1.9,2.2c-0.1,0.6-0.1,0.6,0.8,0.6s0.9,0,0.9,0.8v0.7l-2.1,0.2
			c-8.5,0.8-16.6,4.1-23.3,9.4c-2.9,2.5-5.5,5.3-7.9,8.4c-4.9,7-8,16-8,23.6v1.4h86.2v-0.9c0-0.5-0.1-1.9-0.2-3.2
			C90,47.9,85.3,38.2,77.7,31C70.9,24.5,62,20.4,52.6,19.5L50,19.2v-0.7c-0.1-0.7,0-0.7,0.8-0.7s0.9-0.1,0.9-0.5
			c-0.2-1.1-0.9-2-1.9-2.4C48.8,14.3,47.6,14.3,46.5,14.9z M57.8,21.5c4.2,1,5.1,1.5,4.6,2.3c-0.2,0.3-0.5,0.2-2.1-0.5
			c-1-0.5-2.9-1.2-4.2-1.7C53.6,20.6,54.1,20.6,57.8,21.5z M69.2,26.1c9.2,5.4,15.8,14.3,18.5,24.6c0.7,2.9,1.2,5.9,1.3,8.9v1.1
			h-2.6l-0.3-2.9c-0.6-6.7-2.9-13.1-6.7-18.6c-3.2-4.7-6.5-8-12.2-12.2c-0.6-0.4-0.6-0.5-0.3-1.2c0.2-0.4,0.4-0.7,0.5-0.7
			C68.1,25.4,68.7,25.8,69.2,26.1z"/>
		<path class="st3" d="M0,64.3c0,0.5,0.1,1.1,0.4,1.6l0.3,0.5H48c32.2,0,47.5-0.1,47.8-0.2s0.4-0.5,0.4-1.6v-1.3H0V64.3z"/>
	</g>
</g>
</svg>
