<?xml version="1.0" encoding="utf-8"?>
<!-- Generator: Adobe Illustrator 26.0.1, SVG Export Plug-In . SVG Version: 6.00 Build 0)  -->
<svg version="1.1" id="Calque_1" xmlns="http://www.w3.org/2000/svg" xmlns:xlink="http://www.w3.org/1999/xlink" x="0px" y="0px"
	 viewBox="0 0 840 880" style="enable-background:new 0 0 840 880;" xml:space="preserve">
<style type="text/css">
	.st0{fill:#FFFFFF;}
</style>
<g transform="translate(0.000000,880.000000) scale(0.100000,-0.100000)">
	<path class="st0" d="M3970,8394c-19-2-91-9-160-15c-135-12-300-37-450-70c-742-161-1431-540-1980-1089C720,6560,318,5720,218,4790
		c-17-162-17-616,0-780c98-925,502-1770,1162-2430c595-596,1352-988,2165-1124c208-35,319-45,550-53c1082-33,2141,392,2925,1177
		c663,663,1059,1493,1162,2435c17,153,16,622,0,775c-152,1387-979,2576-2224,3195c-423,210-884,345-1353,395
		C4504,8391,4034,8401,3970,8394z M4635,8046c174-23,289-44,442-82c1220-298,2210-1213,2608-2409c77-232,135-501,167-770
		c17-146,17-627,0-765c-92-741-352-1357-810-1920c-84-102-404-430-421-430c-4,0-11,50-15,112c-34,566-276,1095-695,1518
		c-217,219-424,368-696,500c-88,43-215,97-282,121l-123,42l94,42c304,137,576,409,725,726c251,534,201,1153-132,1626
		c-79,113-267,301-380,380c-178,125-403,222-620,265c-92,18-145,22-297,22c-216,0-315-15-493-74c-250-83-437-200-628-390
		c-234-233-376-499-441-823c-29-148-32-425-5-562c98-497,424-944,848-1159l106-54l-141-47c-245-81-497-213-711-374
		c-124-94-324-287-420-406c-154-192-307-460-385-675c-75-206-126-454-137-672c-3-65-10-118-15-118c-6,0-85,75-177,168
		c-423,422-714,894-895,1449c-110,340-162,643-173,1013c-37,1324,633,2552,1769,3242c473,286,1029,468,1589,517
		C4035,8072,4501,8064,4635,8046z"/>
</g>
</svg>
