<?xml version="1.0" encoding="utf-8"?>
<!-- Generator: Adobe Illustrator 26.0.1, SVG Export Plug-In . SVG Version: 6.00 Build 0)  -->
<svg version="1.1" id="Calque_1" xmlns="http://www.w3.org/2000/svg" xmlns:xlink="http://www.w3.org/1999/xlink" x="0px" y="0px"
	 viewBox="0 0 840 880" style="enable-background:new 0 0 840 880;" xml:space="preserve">
<style type="text/css">
	.st0{fill:#FFFFFF;}
</style>
<g transform="translate(0.000000,880.000000) scale(0.100000,-0.100000)">
	<path class="st0" d="M4710.9,5741.6c100.6-22.3,206.4-70.4,287.1-131.9c55.5-41.9,136.7-128.5,176-187.2
		c59.2-87.7,103.7-197.8,126.2-309c8.9-46.4,11-75.4,11-154.8s-2.1-108.4-11-154.8c-32.5-161.5-101.6-297.2-209-410.7
		c-107.9-113.4-230.5-183.3-380.3-217.9c-76.5-17.3-213.7-17.3-290.2,0c-149.8,34.6-272.4,104.5-380.3,217.9
		c-107.4,113.4-176.5,249.2-209,410.7c-16.2,81.6-16.2,228,0,309.5c69.1,343.1,324.3,595.1,648.5,638.6
		C4536.4,5760,4650.6,5754.4,4710.9,5741.6z M4722.9,3911.1c239.4-29.6,451.6-113.4,645.4-255.3c215.8-158.1,396-388.3,499.2-639.8
		l14.1-34.1l-37.2-37.4c-250.4-252-566.8-426.3-905.7-499.5c-137.2-29.6-208-36.9-373-36.9c-165,0-235.7,7.3-373,36.9
		c-338.9,73.2-655.3,247.5-905.7,499.5l-37.2,37.4l14.1,34.1c65,158.1,166.6,317.4,285,447c228.9,250.9,523.3,405.1,854.4,448.1
		C4480.4,3921.2,4643.8,3921.2,4722.9,3911.1z"/>
</g>
</svg>
